<svg id="Layer_1" height="512" viewBox="0 0 512 512" width="512" xmlns="http://www.w3.org/2000/svg" data-name="Layer 1"><path d="m256 36c-121.5 0-220 98.5-220 220s98.5 220 220 220 220-98.5 220-220-98.5-220-220-220zm0 412.5c-106.315 0-192.5-86.185-192.5-192.5s86.185-192.5 192.5-192.5 192.5 86.185 192.5 192.5-86.185 192.5-192.5 192.5z" fill="#6cc"/><path d="m256 63.5c-106.315 0-192.5 86.185-192.5 192.5s86.185 192.5 192.5 192.5 192.5-86.185 192.5-192.5-86.185-192.5-192.5-192.5zm23.739 212.5v59.872l-65.281-37.7-39.692.028v-84.416l39.692.028 65.281-37.681v59.869a21.561 21.561 0 0 1 0 39.993z" fill="#6cc"/><path d="m279.739 236v-59.869l-65.281 37.681-39.692-.028v84.416l39.692-.028 65.281 37.7v-59.872a21.561 21.561 0 0 0 0-39.993z" fill="none"/><path d="m40 256c0-119.293 96.707-216 216-216 100.247 0 184.533 68.3 208.9 160.894l7.858-1.593c-25.114-96.256-112.636-167.301-216.758-167.301-123.712 0-224 100.288-224 224 0 6.459.289 12.849.825 19.169l7.983-.542c-.525-6.14-.808-12.35-.808-18.627z"/><path d="m472 256c0 119.293-96.707 216-216 216-106.72 0-195.351-77.4-212.851-179.123l-7.933 1.072c18.029 105.636 110.009 186.051 220.784 186.051 123.712 0 224-100.288 224-224z"/><path d="m471.194 237.2c-.524-6.077-1.313-12.193-2.345-18.177l7.882-1.36c1.072 6.206 1.89 12.548 2.434 18.85z"/><path d="m256 452.5c-108.351 0-196.5-88.149-196.5-196.5a196.815 196.815 0 0 1 23.4-93.067l7.042 3.794a188.8 188.8 0 0 0 -22.442 89.273c0 103.939 84.561 188.5 188.5 188.5s188.5-84.561 188.5-188.5-84.561-188.5-188.5-188.5a188.535 188.535 0 0 0 -155.9 82.5l-6.611-4.5a196.526 196.526 0 0 1 162.511-86c108.351 0 196.5 88.149 196.5 196.5s-88.149 196.5-196.5 196.5z"/><path d="m283.739 342.8-70.352-40.624-42.621.031v-92.426l42.621.03 70.352-40.611v64.263a25.558 25.558 0 0 1 0 45.067zm-68.211-48.626 60.211 34.769v-55.643l2.5-1.012a17.562 17.562 0 0 0 0-32.581l-2.5-1.012v-55.637l-60.211 34.755-36.762-.026v76.413z"/><path d="m322.4 303.752-5.847-5.459a61.963 61.963 0 0 0 0-84.587l5.849-5.459a69.963 69.963 0 0 1 0 95.505z"/><path d="m307.152 291.978-5.847-5.461a44.712 44.712 0 0 0 0-61.038l5.849-5.458a52.713 52.713 0 0 1 0 71.957z"/></svg>